<?xml version="1.0" encoding="utf-8"?>
<!-- Generator: Adobe Illustrator 16.0.0, SVG Export Plug-In . SVG Version: 6.00 Build 0)  -->
<!DOCTYPE svg PUBLIC "-//W3C//DTD SVG 1.1//EN" "http://www.w3.org/Graphics/SVG/1.1/DTD/svg11.dtd">
<svg version="1.1" id="Layer_1" xmlns="http://www.w3.org/2000/svg" xmlns:xlink="http://www.w3.org/1999/xlink" x="0px" y="0px"
	 width="138px" height="135px" viewBox="0 0 138 135" enable-background="new 0 0 138 135" xml:space="preserve">
<path fill="#FFFFFF" d="M86.069,94.803c-3.406-0.55-3.483-10.049-3.483-10.049s10.006-10.049,12.187-23.563
	c5.866,0,9.49-14.367,3.623-19.421C98.641,36.448,105.937,0,69,0S39.359,36.448,39.604,41.77
	c-5.867,5.055-2.244,19.421,3.623,19.421c2.181,13.513,12.187,23.563,12.187,23.563s-0.078,9.5-3.483,10.049
	C40.961,96.573,0,114.902,0,135h69h69C138,114.902,97.039,96.573,86.069,94.803z"/>
</svg>
