<?xml version="1.0" encoding="utf-8"?>
<!-- Generator: Adobe Illustrator 16.0.0, SVG Export Plug-In . SVG Version: 6.00 Build 0)  -->
<!DOCTYPE svg PUBLIC "-//W3C//DTD SVG 1.1//EN" "http://www.w3.org/Graphics/SVG/1.1/DTD/svg11.dtd">
<svg version="1.1" id="Layer_1" xmlns="http://www.w3.org/2000/svg" xmlns:xlink="http://www.w3.org/1999/xlink" x="0px" y="0px"
	 width="27px" height="24.005px" viewBox="674 341.997 27 24.005" enable-background="new 674 341.997 27 24.005"
	 xml:space="preserve">
<path fill="#989898" d="M690.293,346.117c1.249,0.827,2.124,2.227,2.284,3.851c0.509,0.251,1.074,0.396,1.673,0.396
	c2.188,0,3.96-1.873,3.96-4.184s-1.771-4.184-3.96-4.184C692.084,341.998,690.326,343.837,690.293,346.117z M687.699,354.683
	c2.187,0,3.96-1.873,3.96-4.183c0-2.311-1.773-4.183-3.96-4.183c-2.188,0-3.961,1.873-3.961,4.183
	C683.739,352.81,685.512,354.683,687.699,354.683z M689.379,354.968h-3.359c-2.797,0-5.07,2.403-5.07,5.357v4.341l0.01,0.068
	l0.283,0.094c2.668,0.88,4.986,1.174,6.894,1.174c3.727,0,5.887-1.123,6.021-1.194l0.265-0.142h0.028v-4.341
	C694.449,357.371,692.175,354.968,689.379,354.968z M695.93,350.649h-3.334c-0.036,1.408-0.604,2.678-1.506,3.591
	c2.485,0.781,4.303,3.215,4.303,6.091v1.338c3.292-0.127,5.189-1.113,5.315-1.18l0.264-0.143H701v-4.342
	C701.001,353.052,698.726,350.649,695.93,350.649z M680.751,350.364c0.775,0,1.496-0.239,2.106-0.646
	c0.193-1.337,0.873-2.506,1.842-3.302c0.004-0.079,0.011-0.156,0.011-0.235c0-2.311-1.773-4.184-3.959-4.184
	c-2.188,0-3.96,1.873-3.96,4.184S678.563,350.364,680.751,350.364z M684.307,354.24c-0.896-0.908-1.464-2.17-1.505-3.571
	c-0.124-0.009-0.246-0.02-0.372-0.02h-3.359c-2.796,0-5.07,2.402-5.07,5.355v4.342l0.01,0.067l0.283,0.095
	c2.14,0.706,4.051,1.031,5.71,1.133v-1.311C680.004,357.456,681.821,355.021,684.307,354.24z"/>
</svg>
