<?xml version="1.0" encoding="utf-8"?>
<!-- Generator: Adobe Illustrator 17.0.0, SVG Export Plug-In . SVG Version: 6.00 Build 0)  -->
<!DOCTYPE svg PUBLIC "-//W3C//DTD SVG 1.1//EN" "http://www.w3.org/Graphics/SVG/1.1/DTD/svg11.dtd">
<svg version="1.1" id="Layer_1" xmlns="http://www.w3.org/2000/svg" xmlns:xlink="http://www.w3.org/1999/xlink" x="0px" y="0px"
	 width="161.002px" height="153.001px" viewBox="0 0 161.002 153.001" enable-background="new 0 0 161.002 153.001"
	 xml:space="preserve">
<g id="g3493">
	<path id="path3495" fill="#656666" d="M12.119,141.572c0,0.295-0.436,1.51-1.304,3.645c-0.869,2.136-1.305,3.385-1.305,3.755H7.688
		c0-0.238-0.213-0.973-0.644-2.204c-0.532-1.538-0.871-2.584-1.016-3.141H5.901c-0.136,0.535-0.459,1.569-0.972,3.101
		c-0.412,1.216-0.618,1.963-0.618,2.244H2.478c0-0.315-0.411-1.58-1.239-3.789C0.41,142.973,0,141.769,0,141.573h2.253
		c0,0.212,0.229,1.103,0.687,2.674c0.457,1.572,0.684,2.505,0.684,2.8h0.118c0-0.355,0.263-1.29,0.782-2.792
		c0.521-1.502,0.784-2.397,0.784-2.683h1.841c0,0.196,0.253,1.092,0.761,2.688c0.511,1.593,0.766,2.523,0.766,2.787h0.108
		c0-0.29,0.23-1.175,0.692-2.651c0.462-1.479,0.69-2.42,0.69-2.822h1.953V141.572L12.119,141.572z M27.215,141.572
		c0,0.295-0.437,1.51-1.305,3.645c-0.867,2.136-1.305,3.385-1.305,3.755h-1.822c0-0.238-0.213-0.973-0.644-2.204
		c-0.532-1.538-0.871-2.584-1.015-3.141h-0.128c-0.135,0.535-0.459,1.569-0.972,3.101c-0.412,1.216-0.618,1.963-0.618,2.244h-1.833
		c0-0.315-0.411-1.58-1.238-3.789c-0.828-2.21-1.24-3.414-1.24-3.61h2.253c0,0.212,0.229,1.103,0.687,2.674
		c0.457,1.572,0.686,2.505,0.686,2.8h0.117c0-0.355,0.262-1.29,0.782-2.792c0.521-1.502,0.783-2.397,0.783-2.683h1.841
		c0,0.196,0.254,1.092,0.762,2.688c0.511,1.593,0.765,2.523,0.765,2.787h0.11c0-0.29,0.229-1.175,0.69-2.651
		c0.462-1.479,0.691-2.42,0.691-2.822h1.953V141.572L27.215,141.572z M42.312,141.572c0,0.295-0.435,1.51-1.304,3.645
		c-0.868,2.136-1.305,3.385-1.305,3.755h-1.822c0-0.238-0.213-0.973-0.644-2.204c-0.533-1.538-0.872-2.584-1.016-3.141h-0.127
		c-0.136,0.535-0.459,1.569-0.973,3.101c-0.411,1.216-0.616,1.963-0.616,2.244h-1.834c0-0.315-0.411-1.58-1.239-3.789
		c-0.828-2.21-1.24-3.414-1.24-3.61h2.253c0,0.212,0.229,1.103,0.688,2.674c0.457,1.572,0.684,2.505,0.684,2.8h0.118
		c0-0.355,0.262-1.29,0.783-2.792s0.783-2.397,0.783-2.683h1.841c0,0.196,0.254,1.092,0.761,2.688
		c0.511,1.593,0.765,2.523,0.765,2.787h0.11c0-0.29,0.229-1.175,0.691-2.651c0.462-1.479,0.691-2.42,0.691-2.822h1.952V141.572
		L42.312,141.572z M47.451,147.615c0,0.38-0.134,0.713-0.396,1.002c-0.267,0.287-0.629,0.431-1.093,0.431
		c-0.393,0-0.698-0.125-0.917-0.372c-0.22-0.25-0.329-0.547-0.329-0.896c0-0.38,0.134-0.708,0.396-0.987
		c0.266-0.276,0.631-0.417,1.103-0.417c0.395,0,0.702,0.123,0.916,0.365C47.343,146.98,47.451,147.273,47.451,147.615
		L47.451,147.615L47.451,147.615z M58.538,148.972h-2.084c0.115-1.313,0.176-2.643,0.176-3.988c0-0.816-0.124-1.369-0.363-1.659
		c-0.243-0.29-0.612-0.437-1.109-0.437c-0.596,0-1.16,0.202-1.69,0.606c0.025,2.025,0.04,3.853,0.04,5.478h-2.105
		c0.094-1.625,0.139-2.902,0.139-3.832c0-1.241-0.125-2.415-0.382-3.516l2.004-0.218l0.135,0.827h0.125
		c0.714-0.614,1.536-0.92,2.464-0.92c0.805,0,1.447,0.188,1.932,0.563c0.481,0.378,0.724,1.072,0.724,2.085
		c0,0.151-0.007,0.352-0.021,0.604s-0.02,0.511-0.02,0.775C58.499,146.042,58.512,147.252,58.538,148.972L58.538,148.972
		L58.538,148.972z M70.29,145.1c0,1.309-0.402,2.332-1.213,3.068c-0.808,0.74-1.761,1.106-2.855,1.106
		c-1.045,0-1.939-0.335-2.687-1.008c-0.745-0.673-1.12-1.619-1.12-2.84c0-1.313,0.406-2.342,1.223-3.084
		c0.813-0.745,1.769-1.114,2.863-1.114c1.04,0,1.933,0.337,2.675,1.016C69.918,142.922,70.29,143.875,70.29,145.1L70.29,145.1z
		 M68.249,145.335c0-0.753-0.18-1.386-0.531-1.899c-0.355-0.51-0.817-0.766-1.388-0.766c-0.554,0-1.002,0.24-1.349,0.715
		c-0.349,0.479-0.521,1.077-0.521,1.792c0,0.752,0.177,1.386,0.531,1.898c0.355,0.51,0.817,0.766,1.388,0.766
		c0.554,0,1.002-0.239,1.35-0.715C68.075,146.648,68.249,146.049,68.249,145.335L68.249,145.335z M79.337,141.572l-0.455,1.82
		c-0.389-0.153-0.777-0.233-1.177-0.233c-0.768,0-1.271,0.343-1.519,1.028c0,2.072,0.017,3.667,0.049,4.784h-2.084
		c0.092-1.563,0.133-2.84,0.133-3.832c0-1.236-0.13-2.41-0.389-3.516l1.995-0.218c0.089,0.57,0.134,0.905,0.134,1.005h0.124
		c0.479-0.731,1.119-1.1,1.917-1.1C78.444,141.314,78.868,141.399,79.337,141.572L79.337,141.572z M90.361,145.1
		c0,1.309-0.403,2.332-1.213,3.068c-0.808,0.74-1.76,1.106-2.856,1.106c-1.046,0-1.938-0.335-2.687-1.008
		c-0.744-0.673-1.118-1.619-1.118-2.84c0-1.313,0.405-2.342,1.221-3.084c0.814-0.745,1.77-1.114,2.865-1.114
		c1.039,0,1.932,0.337,2.674,1.016C89.99,142.922,90.361,143.875,90.361,145.1L90.361,145.1z M88.32,145.335
		c0-0.753-0.18-1.386-0.531-1.899c-0.355-0.51-0.817-0.766-1.388-0.766c-0.554,0-1.002,0.24-1.35,0.715
		c-0.348,0.479-0.521,1.077-0.521,1.792c0,0.752,0.177,1.386,0.531,1.898c0.355,0.51,0.818,0.766,1.387,0.766
		c0.555,0,1.002-0.239,1.352-0.715C88.146,146.648,88.32,146.049,88.32,145.335L88.32,145.335L88.32,145.335z M102.054,140.494
		l-0.171,1.45c-0.815,0-1.325,0.116-1.528,0.351v0.101c0.31,0.392,0.462,0.827,0.462,1.313c0,0.741-0.275,1.374-0.825,1.898
		c-0.551,0.525-1.372,0.787-2.462,0.787c-0.534,0-0.97-0.039-1.309-0.125c-0.275,0.125-0.415,0.29-0.415,0.492
		c0,0.316,0.167,0.54,0.497,0.665c0.332,0.127,1.104,0.191,2.313,0.191c2.093,0,3.142,0.71,3.142,2.127
		c0,0.998-0.438,1.79-1.311,2.377c-0.871,0.585-1.93,0.88-3.177,0.88c-2.442,0-3.663-0.764-3.663-2.292
		c0-0.47,0.136-0.872,0.411-1.202c0.271-0.329,0.59-0.532,0.951-0.604v-0.117c-0.438-0.276-0.657-0.697-0.657-1.262
		c0-0.572,0.299-1.049,0.898-1.435v-0.108c-0.846-0.421-1.268-1.076-1.268-1.971c0-0.764,0.29-1.404,0.873-1.917
		c0.579-0.514,1.479-0.771,2.695-0.771c0.827,0,1.502,0.155,2.021,0.467h0.109c0.148-0.981,0.658-1.473,1.518-1.473
		C101.499,140.318,101.797,140.378,102.054,140.494L102.054,140.494L102.054,140.494z M99.823,150.32
		c0-0.387-0.146-0.663-0.44-0.837c-0.298-0.169-0.805-0.255-1.522-0.255c-0.585,0-1.176-0.026-1.77-0.08
		c-0.459,0.271-0.689,0.673-0.689,1.207c0,0.998,0.668,1.498,2.004,1.498c0.746,0,1.336-0.141,1.771-0.42
		C99.607,151.151,99.823,150.782,99.823,150.32L99.823,150.32L99.823,150.32z M98.898,143.909c0-0.469-0.149-0.824-0.455-1.069
		c-0.302-0.245-0.647-0.365-1.039-0.365s-0.733,0.117-1.028,0.354c-0.297,0.236-0.442,0.582-0.442,1.04
		c0,0.463,0.151,0.813,0.455,1.053c0.301,0.237,0.652,0.356,1.055,0.356c0.383,0,0.719-0.114,1.015-0.347
		C98.75,144.701,98.898,144.36,98.898,143.909L98.898,143.909z M112.538,148.964l-1.83,0.063c-0.082-0.28-0.126-0.504-0.126-0.67
		h-0.125c-0.684,0.56-1.481,0.841-2.394,0.841c-0.862,0-1.511-0.227-1.945-0.673c-0.438-0.449-0.654-1.349-0.654-2.693
		c0-0.159,0.003-0.386,0.011-0.679c0.009-0.29,0.013-0.546,0.013-0.764c0-0.575-0.051-1.495-0.148-2.757l2.184-0.077
		c-0.083,0.997-0.123,1.941-0.123,2.834c0,1.274,0.094,2.13,0.283,2.571c0.193,0.441,0.565,0.663,1.125,0.663
		c0.609,0,1.138-0.146,1.582-0.437c0-2.729-0.031-4.587-0.094-5.563l2.113-0.069c-0.054,0.981-0.08,2.254-0.08,3.815
		C112.328,146.531,112.399,147.727,112.538,148.964L112.538,148.964L112.538,148.964z M128.276,148.972h-2.074
		c0.111-1.313,0.165-2.593,0.165-3.832c0-0.931-0.121-1.54-0.361-1.825c-0.237-0.283-0.622-0.428-1.148-0.428
		c-0.422,0-0.867,0.154-1.339,0.46c-0.021,0.648-0.032,1.231-0.032,1.744c0,0.867,0.017,2.16,0.049,3.88h-2.102
		c0.115-1.423,0.175-2.809,0.175-4.153c0-0.694-0.099-1.191-0.294-1.486c-0.194-0.295-0.602-0.444-1.219-0.444
		c-0.565,0-1.04,0.189-1.415,0.569c0.024,2.055,0.038,3.896,0.038,5.515h-2.105c0.095-1.619,0.141-2.897,0.141-3.832
		c0-1.215-0.124-2.388-0.383-3.516l2.005-0.218l0.134,0.827h0.126c0.679-0.614,1.441-0.921,2.292-0.921
		c1.065,0,1.813,0.307,2.247,0.921h0.127c0.771-0.614,1.535-0.921,2.292-0.921c0.886,0,1.558,0.191,2.009,0.572
		c0.452,0.382,0.676,1.075,0.676,2.077c0,0.099-0.006,0.288-0.016,0.566c-0.011,0.275-0.017,0.465-0.017,0.563
		C128.245,145.959,128.255,147.252,128.276,148.972L128.276,148.972L128.276,148.972z M134.98,147.615
		c0,0.38-0.134,0.713-0.396,1.002c-0.265,0.287-0.628,0.431-1.093,0.431c-0.391,0-0.697-0.125-0.917-0.372
		c-0.219-0.25-0.327-0.547-0.327-0.896c0-0.381,0.133-0.708,0.396-0.987c0.265-0.276,0.63-0.417,1.101-0.417
		c0.396,0,0.703,0.123,0.917,0.365C134.874,146.98,134.98,147.273,134.98,147.615L134.98,147.615L134.98,147.615z M145.362,148.964
		l-1.845,0.063c-0.086-0.22-0.126-0.416-0.126-0.592h-0.103c-0.573,0.487-1.349,0.73-2.323,0.73c-0.655,0-1.195-0.182-1.624-0.539
		c-0.436-0.362-0.647-0.84-0.647-1.438c0-0.79,0.335-1.437,1.005-1.938c0.67-0.504,1.847-0.771,3.526-0.803
		c0.011-0.094,0.017-0.185,0.017-0.267c0-0.561-0.136-0.931-0.406-1.108c-0.271-0.182-0.77-0.27-1.495-0.27
		c-0.788,0-1.56,0.104-2.311,0.312l0.172-1.434c0.711-0.245,1.714-0.367,3.007-0.367c0.945,0,1.676,0.197,2.188,0.594
		c0.517,0.393,0.771,1.084,0.771,2.07c0,0.219-0.011,0.615-0.029,1.191c-0.015,0.577-0.027,0.962-0.027,1.154
		C145.111,147.398,145.195,148.276,145.362,148.964L145.362,148.964L145.362,148.964z M143.273,147.344
		c-0.031-0.703-0.048-1.308-0.048-1.815c-1.78,0-2.67,0.449-2.67,1.349c0,0.617,0.394,0.925,1.176,0.925
		C142.345,147.801,142.86,147.651,143.273,147.344L143.273,147.344L143.273,147.344z M160.935,148.972h-2.073
		c0.109-1.313,0.163-2.593,0.163-3.832c0-0.931-0.12-1.54-0.36-1.825c-0.237-0.283-0.621-0.428-1.147-0.428
		c-0.424,0-0.869,0.154-1.341,0.46c-0.021,0.648-0.031,1.231-0.031,1.744c0,0.867,0.017,2.16,0.048,3.88h-2.1
		c0.114-1.423,0.173-2.809,0.173-4.153c0-0.694-0.099-1.191-0.294-1.486c-0.194-0.295-0.601-0.444-1.218-0.444
		c-0.566,0-1.039,0.189-1.416,0.569c0.025,2.055,0.039,3.896,0.039,5.515h-2.104c0.093-1.619,0.139-2.897,0.139-3.832
		c0-1.215-0.125-2.388-0.383-3.516l2.004-0.218l0.135,0.827h0.126c0.679-0.614,1.441-0.921,2.293-0.921
		c1.064,0,1.813,0.307,2.246,0.921h0.126c0.771-0.614,1.535-0.921,2.293-0.921c0.888,0,1.559,0.191,2.009,0.572
		c0.451,0.382,0.677,1.075,0.677,2.077c0,0.099-0.005,0.288-0.017,0.566c-0.01,0.275-0.017,0.465-0.017,0.563
		C160.903,145.959,160.914,147.252,160.935,148.972L160.935,148.972z"/>
	<path id="path3497" fill="#EC3B7F" d="M39.962,47.186c0-8.921,7.245-16.131,16.18-16.131c8.968,0,16.209,7.209,16.209,16.131
		c0,0.652-0.032,1.343-0.101,1.987h5.794v-13.14c1.931,1.616,4.453,2.571,7.214,2.571c6.203,0,11.244-5.008,11.244-11.182
		c0-6.216-5.041-11.225-11.244-11.225c-2.761,0-5.283,0.992-7.214,2.605V0.236L33.959,33.559v15.61h6.105
		C39.996,48.528,39.962,47.838,39.962,47.186L39.962,47.186z"/>
	<path id="path3499" fill="#28ABE2" d="M59.832,76.116c0-8.922,7.244-16.129,16.176-16.129c0.692,0,1.383,0.034,2.036,0.138v-5.799
		H64.832c1.619-1.925,2.587-4.429,2.587-7.142c0-6.209-5.035-11.219-11.277-11.219c-6.214,0-11.249,5.01-11.249,11.219
		c0,2.713,0.97,5.217,2.587,7.142H33.959v42.312h44.085v-4.527c-0.653,0.069-1.344,0.138-2.036,0.138
		C67.078,92.248,59.832,85.006,59.832,76.116L59.832,76.116z"/>
	<path id="path3501" fill="#F9B049" d="M121.305,56.351c0,8.889-7.249,16.126-16.219,16.126c-8.925,0-16.18-7.237-16.18-16.126
		c0-0.686,0.04-1.372,0.11-2.023h-5.799v13.176c-1.968-1.611-4.447-2.609-7.211-2.609c-6.205,0-11.245,5.011-11.245,11.224
		c0,6.178,5.04,11.19,11.245,11.19c2.764,0,5.243-0.961,7.211-2.574v11.904h44.086V54.327h-6.104
		C121.269,54.979,121.305,55.665,121.305,56.351L121.305,56.351z"/>
	<path id="path3503" fill="#8EC54A" d="M83.219,0v11.43c0.655-0.104,1.348-0.137,2.039-0.137c8.932,0,16.177,7.206,16.177,16.131
		c0,8.883-7.245,16.093-16.177,16.093c-0.691,0-1.384-0.037-2.039-0.104v5.76h13.208c-1.621,1.962-2.581,4.466-2.581,7.178
		c0,6.176,5.037,11.188,11.24,11.188c6.251,0,11.284-5.012,11.284-11.188c0-2.712-0.963-5.216-2.622-7.178h13.557v-15.61L83.219,0z"
		/>
	<path id="path3505" fill="#A7A9AC" d="M0.189,131.229c0,0.309,0.278,0.584,0.586,0.584h2.813c0.339,0,0.587-0.276,0.587-0.584
		v-13.216h0.029l12.91,14.108h0.741c0.31,0,0.587-0.246,0.587-0.554v-20.686c0-0.308-0.277-0.584-0.587-0.584h-2.841
		c-0.34,0-0.587,0.277-0.587,0.584v12.694h-0.031L1.547,109.99H0.775c-0.308,0-0.586,0.246-0.586,0.554V131.229L0.189,131.229
		L0.189,131.229z M22.519,121.086c0,6.146,4.911,11.034,11.088,11.034c6.178,0,11.119-4.888,11.119-11.034
		c0-6.147-4.941-11.096-11.119-11.096C27.43,109.99,22.519,114.939,22.519,121.086L22.519,121.086z M26.534,121.086
		c0-3.873,3.184-7.1,7.073-7.1c3.893,0,7.104,3.227,7.104,7.1s-3.213,7.039-7.104,7.039S26.534,124.959,26.534,121.086
		L26.534,121.086z M48.773,131.229c0,0.309,0.246,0.584,0.587,0.584h2.841c0.311,0,0.587-0.276,0.587-0.584v-7.837h3.43l4.106,8.146
		c0.063,0.123,0.216,0.276,0.494,0.276h3.243c0.524,0,0.741-0.491,0.524-0.892l-4.23-7.807c2.688-1.075,4.571-3.382,4.571-6.208
		c0-3.658-3.027-6.609-6.733-6.609H49.36c-0.341,0-0.587,0.277-0.587,0.584V131.229L48.773,131.229L48.773,131.229z M52.818,120.103
		v-6.115h5.035c1.637,0,3.058,1.352,3.058,2.98c0,1.721-1.421,3.135-3.058,3.135H52.818L52.818,120.103z M67.798,121.086
		c0,6.146,4.911,11.034,11.089,11.034c6.177,0,11.118-4.888,11.118-11.034c0-6.147-4.941-11.096-11.118-11.096
		C72.709,109.99,67.798,114.939,67.798,121.086L67.798,121.086z M71.814,121.086c0-3.873,3.181-7.1,7.073-7.1
		c3.892,0,7.104,3.227,7.104,7.1s-3.212,7.039-7.104,7.039C74.995,128.125,71.814,124.959,71.814,121.086L71.814,121.086z
		 M92.507,121.086c0,6.146,4.94,11.003,11.089,11.003c4.478,0,7.658-1.998,7.658-1.998c0.125-0.092,0.247-0.245,0.247-0.492v-7.868
		c0-0.307-0.247-0.584-0.556-0.584h-5.93c-0.34,0-0.588,0.246-0.588,0.584v2.429c0,0.308,0.248,0.553,0.588,0.553h2.471v2.613
		c-0.618,0.244-1.945,0.768-3.677,0.768c-3.892,0-6.948-3.228-6.948-7.039c0-3.842,3.058-7.131,6.919-7.131
		c1.698,0,3.335,0.615,4.663,1.783c0.278,0.246,0.557,0.246,0.803,0l1.915-1.998c0.248-0.247,0.218-0.615-0.029-0.86
		c-2.101-1.783-4.759-2.858-7.536-2.858C97.449,109.99,92.507,114.939,92.507,121.086L92.507,121.086z M115.734,123.668
		c0,4.672,3.736,8.452,8.587,8.452c4.879,0,8.616-3.78,8.616-8.452v-12.786c0-0.308-0.278-0.584-0.587-0.584h-2.934
		c-0.341,0-0.588,0.277-0.588,0.584v12.602c0,2.582-1.822,4.642-4.509,4.642c-2.688,0-4.479-2.06-4.479-4.671v-12.571
		c0-0.308-0.247-0.584-0.586-0.584h-2.936c-0.31,0-0.587,0.277-0.587,0.584L115.734,123.668L115.734,123.668L115.734,123.668z
		 M136.829,131.106c-0.062,0.431,0.187,0.707,0.588,0.707h2.778c0.278,0,0.525-0.246,0.558-0.461l1.792-11.648
		c0.028,0,0.092,0,0.092,0l5.467,12.079c0.093,0.185,0.247,0.338,0.525,0.338h0.556c0.278,0,0.464-0.153,0.525-0.338l5.404-12.079
		c0,0,0.063,0,0.094,0l1.82,11.648c0.063,0.215,0.311,0.461,0.587,0.461h2.813c0.399,0,0.646-0.276,0.555-0.707l-3.644-20.653
		c-0.031-0.247-0.217-0.461-0.558-0.461h-0.494c-0.276,0-0.433,0.124-0.524,0.307l-6.795,14.508c-0.031,0-0.031,0-0.092,0
		l-6.795-14.508c-0.094-0.184-0.278-0.307-0.525-0.307h-0.495c-0.339,0-0.524,0.215-0.555,0.461L136.829,131.106L136.829,131.106z"
		/>
</g>
</svg>
