<?xml version="1.0" encoding="utf-8"?>
<!-- Generator: Adobe Illustrator 16.0.0, SVG Export Plug-In . SVG Version: 6.00 Build 0)  -->
<!DOCTYPE svg PUBLIC "-//W3C//DTD SVG 1.1//EN" "http://www.w3.org/Graphics/SVG/1.1/DTD/svg11.dtd">
<svg version="1.1" id="Layer_1" xmlns="http://www.w3.org/2000/svg" xmlns:xlink="http://www.w3.org/1999/xlink" x="0px" y="0px"
	 width="22px" height="20.999px" viewBox="507 343 22 20.999" enable-background="new 507 343 22 20.999" xml:space="preserve">
<path fill="#979797" d="M518,354.126c2.724,0,4.933-2.491,4.933-5.563c0-4.262-2.208-5.563-4.933-5.563s-4.933,1.302-4.933,5.563
	C513.067,351.636,515.276,354.126,518,354.126z"/>
<path fill="#979797" d="M528.892,362.314l-2.487-5.401c-0.114-0.248-0.314-0.452-0.563-0.577l-3.861-1.938
	c-0.085-0.042-0.188-0.034-0.266,0.021c-1.093,0.796-2.377,1.217-3.714,1.217s-2.622-0.42-3.714-1.217
	c-0.077-0.056-0.18-0.063-0.265-0.021l-3.862,1.938c-0.249,0.125-0.449,0.33-0.563,0.577l-2.488,5.401
	c-0.172,0.372-0.137,0.799,0.094,1.14c0.229,0.342,0.62,0.545,1.043,0.545h19.51c0.423,0,0.813-0.204,1.043-0.545
	C529.027,363.113,529.064,362.688,528.892,362.314z"/>
</svg>
