<?xml version="1.0" encoding="utf-8"?>
<!-- Generator: Adobe Illustrator 17.0.0, SVG Export Plug-In . SVG Version: 6.00 Build 0)  -->
<!DOCTYPE svg PUBLIC "-//W3C//DTD SVG 1.1//EN" "http://www.w3.org/Graphics/SVG/1.1/DTD/svg11.dtd">
<svg version="1.1" id="Layer_1" xmlns="http://www.w3.org/2000/svg" xmlns:xlink="http://www.w3.org/1999/xlink" x="0px" y="0px"
	 width="68.001px" height="87.726px" viewBox="0 0 68.001 87.726" enable-background="new 0 0 68.001 87.726" xml:space="preserve">
<g id="g3394">
	<g id="g3396">
		<g id="g3398">
			<path id="path3400" fill="#ED397F" d="M46.898,24.754l-1.413-3.526c-0.261-0.014-0.521-0.04-0.778-0.078l-2.07,3.177
				l-4.673-2.528L39.43,18.3c-0.178-0.2-0.346-0.407-0.504-0.622l-3.686,0.767l-1.529-5.112l3.484-1.426
				c0.015-0.271,0.041-0.541,0.08-0.81l-3.139-2.089l2.496-4.71l3.466,1.482c0.196-0.178,0.401-0.347,0.612-0.506l-0.757-3.722
				L45.028,0l1.413,3.525c0.261,0.015,0.521,0.041,0.78,0.078l2.069-3.177l4.674,2.529l-1.466,3.498
				c0.178,0.199,0.347,0.407,0.505,0.622l3.686-0.766l1.528,5.112l-3.483,1.425c-0.015,0.271-0.041,0.542-0.08,0.812l3.139,2.088
				l-2.498,4.71l-3.465-1.482c-0.196,0.178-0.401,0.347-0.612,0.507l0.756,3.722L46.898,24.754L46.898,24.754z M46.835,19.22
				l1.234,3.084l1.581-0.483l-0.663-3.261l0.582-0.369c0.479-0.304,0.918-0.668,1.308-1.083l0.479-0.511l3.032,1.297l0.788-1.484
				l-2.753-1.833l0.152-0.672c0.126-0.56,0.183-1.133,0.168-1.706l-0.02-0.689l3.056-1.25l-0.482-1.617l-3.229,0.671L51.7,8.719
				c-0.299-0.482-0.659-0.927-1.072-1.322l-0.496-0.475l1.286-3.067l-1.459-0.79l-1.811,2.779l-0.682-0.158
				c-0.49-0.114-0.993-0.171-1.494-0.171L45.09,5.537l-1.236-3.086l-1.581,0.483l0.663,3.263l-0.582,0.369
				c-0.479,0.303-0.918,0.667-1.306,1.082L40.569,8.16l-3.034-1.299l-0.787,1.485l2.755,1.833l-0.152,0.672
				c-0.126,0.559-0.183,1.132-0.167,1.703l0.021,0.691l-3.06,1.25l0.483,1.616l3.228-0.671l0.369,0.595
				c0.298,0.481,0.659,0.927,1.072,1.323l0.495,0.476L40.507,20.9l1.459,0.79l1.81-2.777l0.682,0.157
				c0.49,0.113,0.996,0.171,1.501,0.171L46.835,19.22L46.835,19.22z"/>
		</g>
		<g id="g3402">
			<path id="path3404" fill="#ED397F" d="M45.775,16.466c-1.744,0-3.111-1.091-3.659-2.918c-0.693-2.317,0.384-4.345,2.682-5.047
				c2.284-0.698,4.332,0.419,5.016,2.707c0.693,2.314-0.384,4.344-2.681,5.046C46.671,16.394,46.215,16.466,45.775,16.466
				L45.775,16.466z M46.154,10.288c-0.241,0-0.502,0.042-0.771,0.125c-1.25,0.382-1.729,1.291-1.35,2.56
				c0.204,0.681,0.673,1.492,1.743,1.492c0.242,0,0.501-0.042,0.771-0.125c1.25-0.382,1.729-1.292,1.35-2.56
				C47.693,11.1,47.225,10.288,46.154,10.288z"/>
		</g>
		<g id="g3406">
			<path id="path3408" fill="#ED397F" d="M27.789,49.45l-1.812-4.521c-0.461-0.017-0.92-0.063-1.374-0.138l-2.655,4.071
				l-5.604-3.033l1.882-4.487c-0.316-0.343-0.611-0.706-0.883-1.087l-4.728,0.982l-1.835-6.138l4.47-1.828
				c0.017-0.471,0.063-0.941,0.139-1.407l-4.028-2.682l2.999-5.653l4.443,1.902c0.337-0.317,0.697-0.614,1.074-0.888l-0.972-4.774
				l6.09-1.86l1.812,4.521c0.459,0.017,0.918,0.063,1.372,0.137l2.654-4.071l5.606,3.032l-1.881,4.485
				c0.317,0.344,0.612,0.708,0.884,1.089l4.724-0.98l1.837,6.134l-4.468,1.828c-0.017,0.473-0.063,0.944-0.139,1.412l4.024,2.678
				l-2.995,5.652l-4.444-1.9c-0.338,0.317-0.698,0.615-1.074,0.889l0.972,4.771L27.789,49.45L27.789,49.45z M27.326,42.916
				L28.963,47l2.594-0.793l-0.879-4.318l0.582-0.369c0.647-0.412,1.242-0.903,1.763-1.461l0.479-0.512l4.02,1.72l1.286-2.429
				l-3.646-2.427l0.152-0.672c0.171-0.754,0.248-1.527,0.228-2.3l-0.02-0.689l4.045-1.656l-0.79-2.639l-4.271,0.887l-0.369-0.594
				c-0.406-0.654-0.894-1.255-1.447-1.786l-0.496-0.477l1.703-4.06l-2.393-1.295l-2.398,3.681l-0.681-0.158
				c-0.661-0.152-1.341-0.23-2.021-0.23l-0.941,0.021l-1.638-4.085l-2.594,0.793l0.879,4.319l-0.581,0.369
				c-0.65,0.414-1.245,0.905-1.764,1.46l-0.479,0.512l-4.019-1.721l-1.288,2.429l3.647,2.428l-0.151,0.673
				c-0.171,0.755-0.247,1.527-0.226,2.297l0.019,0.69l-4.049,1.656l0.79,2.64l4.271-0.888l0.369,0.592
				c0.41,0.656,0.897,1.257,1.449,1.786l0.496,0.477l-1.704,4.062l2.391,1.294l2.399-3.681l0.681,0.158
				c0.663,0.153,1.348,0.23,2.031,0.23L27.326,42.916L27.326,42.916z"/>
		</g>
		<g id="g3410">
			<path id="path3412" fill="#ED397F" d="M26.39,39.369c-2.774,0-5.271-1.873-6.075-4.554c-1.012-3.377,0.889-6.957,4.236-7.98
				c0.601-0.184,1.22-0.276,1.842-0.276c2.816,0,5.258,1.83,6.076,4.553c1.011,3.38-0.89,6.959-4.237,7.981
				C27.632,39.276,27.013,39.369,26.39,39.369L26.39,39.369z M26.393,28.559c-0.424,0-0.847,0.063-1.257,0.189
				c-2.299,0.703-3.604,3.167-2.905,5.494c0.551,1.841,2.263,3.127,4.159,3.127c0.424,0,0.847-0.063,1.258-0.189
				c2.298-0.702,3.603-3.167,2.906-5.495C29.992,29.816,28.32,28.559,26.393,28.559L26.393,28.559z"/>
		</g>
	</g>
	<g id="g3414">
		<path id="path3416" fill="#FFFFFF" d="M10.499,50.225c0,0,5.333-8.5,5-9s10.667-2.333,11-2s18,0,18,0l7,3l6,9c0,0-2.167,1.833-4,2
			s-38.5-0.167-39,0S10.499,50.225,10.499,50.225z"/>
	</g>
	<g id="g3418">
		<g id="g3420">
			<path id="path3422" fill="#00AEEE" d="M67.279,52.085c-0.623-1.94-2.425-3.244-4.483-3.244c-0.482,0-0.96,0.073-1.418,0.217
				l-2.6,0.814l-4.489-9.379l-1.414-0.474c-5.239-1.75-12.834-2.795-20.315-2.795c-7.404,0-13.985,1.021-18.528,2.872l-1.282,0.521
				l-4.3,9.818l-1.824-0.571c-0.458-0.145-0.937-0.218-1.418-0.218c-2.061,0-3.861,1.305-4.485,3.248
				c-0.378,1.185-0.269,2.441,0.311,3.546c0.58,1.104,1.559,1.918,2.755,2.291l0.361,0.114l-0.285,0.517
				c-0.991,1.992-1.677,4.481-1.742,6.342C2.086,66.738,2.108,68.813,2.2,70.84l0.045,11.18v0.11
				c-0.001,1.091-0.001,2.12,0.33,3.017c0.494,1.339,1.615,2.077,3.157,2.077h6.694c1.543,0,2.665-0.738,3.159-2.078
				c0.331-0.896,0.33-1.927,0.33-3.018v-0.111c0,0-0.002-0.481-0.004-1.111c7.826,0.682,12.847,1.021,17.813,1.021
				c0.001,0,0.001,0,0.002,0c4.928,0,9.772-0.334,17.263-1.001c-0.002,0.619-0.003,1.093-0.003,1.094v0.108
				c0,1.091,0,2.121,0.33,3.018c0.494,1.34,1.615,2.078,3.158,2.078h6.695c1.541,0,2.664-0.738,3.157-2.077
				c0.33-0.896,0.33-1.926,0.329-3.017l0.044-11.102c0.003-0.031,0.006-0.063,0.006-0.096c0.146-2.053,0.295-4.175,0.261-5.405
				c-0.057-2.122-0.736-4.599-1.806-6.59l-0.298-0.59l1.354-0.425C66.686,57.152,68.061,54.533,67.279,52.085L67.279,52.085z
				 M15.221,43.111l0.055-0.021c4.158-1.694,10.296-2.628,17.283-2.628c7.145,0,14.348,0.98,19.27,2.626l0.099,0.033l3.687,7.696
				c-6.571,1.714-14.304,1.721-18.189,1.721l-3.031,0.004c-8.536,0.016-16.623,0.03-22.752-1.245L15.221,43.111L15.221,43.111z
				 M12.64,82.131c0,0.607,0.001,1.498-0.111,1.854c-0.026,0.002-0.063,0.004-0.105,0.004H5.73c-0.042,0-0.077-0.002-0.105-0.004
				c-0.11-0.356-0.109-1.244-0.109-1.853l-0.01-2.446c0.447,0.221,0.925,0.371,1.438,0.418c2.054,0.187,3.933,0.355,5.695,0.515
				c0.001,0.762,0.003,1.401,0.003,1.401L12.64,82.131L12.64,82.131z M61.384,82.021v0.112c0,0.606,0.001,1.495-0.111,1.853
				c-0.026,0.002-0.063,0.005-0.104,0.005h-6.695c-0.043,0-0.078-0.003-0.105-0.005c-0.111-0.356-0.11-1.246-0.11-1.854v-0.106
				c0,0,0.002-0.635,0.003-1.393c1.654-0.151,3.416-0.314,5.335-0.492c0.656-0.062,1.257-0.269,1.8-0.574L61.384,82.021
				L61.384,82.021z M63.229,54.842l-5.007,1.567l2.029,4.013c0.847,1.581,1.398,3.57,1.441,5.192
				c0.027,1.009-0.102,2.939-0.227,4.728h-0.038l-0.003,0.576c-0.077,1.124-0.149,2.176-0.18,2.929
				c-0.045,1.211-0.813,2.965-1.967,3.072c-12.729,1.182-19.116,1.774-25.559,1.774c-6.492,0-13.172-0.604-26.481-1.811
				c-0.779-0.071-1.316-1.346-1.485-2.501c-0.124-0.851-0.223-2.223-0.287-3.653L5.463,70.34H5.447
				c-0.073-1.762-0.098-3.552-0.063-4.521c0.042-1.179,0.494-3.188,1.375-4.962l2.164-3.905l-4.156-1.304
				C4.4,55.534,4.11,55.294,3.931,54.953c-0.18-0.342-0.213-0.715-0.096-1.078c0.188-0.592,0.738-0.99,1.366-0.99
				c0.146,0,0.29,0.022,0.429,0.066l4.644,1.454l0.043-0.099c5.831,1.324,13.19,1.474,21.071,1.474c0.995,0,1.998-0.002,3.006-0.005
				l3.024-0.004c4.144,0,12.491,0,19.612-1.979l0.01,0.016l1.375-0.431h0.001l3.946-1.236c0.734-0.229,1.562,0.195,1.795,0.921
				C64.398,53.807,63.981,54.606,63.229,54.842L63.229,54.842z"/>
			<path id="path3424" fill="#FFFFFF" d="M61.167,87.725h-6.695c-1.742,0-3.063-0.876-3.627-2.405
				c-0.361-0.979-0.361-2.054-0.361-3.189l0.001-0.656c-7.006,0.62-11.808,0.955-16.761,0.955c-4.998,0-9.98-0.343-17.313-0.976
				l0.001,0.677c0,1.143,0,2.213-0.361,3.19c-0.564,1.528-1.886,2.405-3.628,2.405H5.729c-1.741,0-3.063-0.876-3.626-2.404
				c-0.363-0.982-0.361-2.055-0.36-3.189L1.697,70.845c-0.086-1.894-0.118-4.022-0.077-5.156c0.067-1.924,0.772-4.494,1.795-6.545
				l0.002-0.004c-1.223-0.44-2.222-1.307-2.828-2.462c-0.642-1.224-0.763-2.62-0.344-3.93c0.689-2.151,2.685-3.597,4.961-3.597
				c0.533,0,1.062,0.081,1.567,0.241l1.396,0.438l4.201-9.595l1.471-0.599c4.603-1.876,11.25-2.909,18.717-2.909
				c7.532,0,15.187,1.056,20.474,2.821l1.615,0.54l4.396,9.179l2.186-0.685c0.507-0.159,1.035-0.24,1.567-0.24
				c2.276,0,4.271,1.443,4.96,3.591c0.417,1.307,0.298,2.696-0.335,3.915c-0.641,1.232-1.726,2.141-3.056,2.557l-0.792,0.248
				l0.032,0.063c1.104,2.057,1.801,4.604,1.858,6.802c0.035,1.274-0.122,3.495-0.261,5.454l-0.048,11.164
				c0.001,1.132,0.002,2.205-0.359,3.188C64.23,86.849,62.908,87.725,61.167,87.725z M51.488,80.381l-0.005,1.749
				c0,1.045,0,2.032,0.299,2.845c0.423,1.146,1.353,1.751,2.689,1.751h6.695c1.336,0,2.267-0.604,2.688-1.75
				c0.3-0.813,0.299-1.8,0.298-2.843l0.051-11.212c0.139-1.956,0.294-4.15,0.26-5.376c-0.054-2.05-0.706-4.431-1.745-6.367
				l-0.569-1.127l1.917-0.601c1.074-0.337,1.95-1.069,2.467-2.063c0.509-0.981,0.604-2.1,0.271-3.149
				c-0.556-1.731-2.167-2.896-4.008-2.896c-0.432,0-0.858,0.065-1.27,0.194l-3.012,0.943l-4.586-9.578l-1.213-0.405
				c-5.191-1.734-12.727-2.77-20.157-2.77c-7.341,0-13.854,1.007-18.34,2.835l-1.095,0.446L8.726,51.049l-2.253-0.705
				c-0.41-0.129-0.837-0.195-1.269-0.195c-1.842,0-3.452,1.166-4.01,2.901c-0.336,1.054-0.237,2.176,0.277,3.161
				c0.52,0.985,1.392,1.712,2.46,2.045l0.946,0.299l-0.581,1.051c-0.953,1.915-1.617,4.324-1.681,6.117
				c-0.04,1.109-0.009,3.205,0.077,5.095l0.045,11.313c-0.001,1.043-0.002,2.027,0.3,2.843c0.422,1.146,1.352,1.75,2.688,1.75h6.694
				c1.337,0,2.268-0.604,2.689-1.751c0.3-0.811,0.3-1.794,0.3-2.835l-0.005-1.778l0.546,0.047
				c7.603,0.661,12.687,1.021,17.769,1.021c5.045,0,9.944-0.351,17.22-0.999L51.488,80.381L51.488,80.381z M61.167,84.49
				l-7.178-0.028l-0.102-0.327c-0.123-0.396-0.133-1.134-0.133-1.988l0.003-1.971l5.789-0.534c0.55-0.051,1.088-0.224,1.601-0.512
				l0.748-0.421l-0.012,3.425c0,0.869-0.01,1.606-0.134,2.002l-0.103,0.325l-0.339,0.023C61.271,84.488,61.224,84.49,61.167,84.49
				L61.167,84.49z M54.788,83.488l6.061,0.002c0.034-0.398,0.034-0.981,0.034-1.341l0.006-1.8c-0.407,0.151-0.825,0.248-1.25,0.288
				l-4.883,0.45l-0.002,1.043C54.755,82.501,54.755,83.087,54.788,83.488L54.788,83.488z M12.423,84.49l-7.177-0.027l-0.102-0.329
				c-0.122-0.394-0.132-1.132-0.132-1.984l-0.013-3.268l0.725,0.356c0.424,0.209,0.837,0.33,1.264,0.368l6.149,0.556l0.003,1.969
				c0,0.87-0.01,1.609-0.134,2.005l-0.103,0.325l-0.339,0.023C12.528,84.488,12.481,84.49,12.423,84.49L12.423,84.49z M6.046,83.488
				l6.06,0.002c0.034-0.398,0.034-0.983,0.034-1.344l-0.002-1.069l-5.241-0.474c-0.298-0.026-0.596-0.087-0.892-0.178l0.007,1.706
				C6.013,82.502,6.013,83.087,6.046,83.488L6.046,83.488z M33.722,79.194c-6.507,0-13.182-0.604-26.481-1.809
				c-1.174-0.107-1.793-1.646-1.98-2.931c-0.115-0.79-0.219-2.104-0.292-3.703L4.952,70.36c-0.073-1.733-0.1-3.566-0.063-4.56
				c0.043-1.231,0.502-3.306,1.427-5.167l1.877-3.391l-3.57-1.119c-0.498-0.156-0.889-0.481-1.129-0.941
				c-0.244-0.463-0.288-0.97-0.13-1.464c0.315-0.985,1.428-1.563,2.423-1.247l4.215,1.32l0.028-0.066l0.402,0.091
				c5.934,1.349,13.608,1.46,20.96,1.46l6.03-0.008c4.033,0,12.423,0,19.479-1.961l0.377-0.104l0.002,0.004l4.938-1.546
				c0.974-0.308,2.11,0.282,2.419,1.244c0.155,0.489,0.111,1.008-0.126,1.463c-0.237,0.457-0.64,0.793-1.132,0.947l-4.444,1.392
				l1.763,3.485c0.875,1.636,1.451,3.71,1.496,5.406c0.027,1.011-0.098,2.913-0.228,4.774l-0.04,0.544
				c-0.079,1.158-0.15,2.2-0.18,2.945c-0.053,1.398-0.922,3.411-2.419,3.551C46.565,78.601,40.18,79.194,33.722,79.194
				L33.722,79.194z M5.931,69.842h0.017l0.02,0.885c0.071,1.546,0.171,2.826,0.282,3.583c0.176,1.201,0.678,2.042,1.037,2.075
				c13.313,1.206,19.974,1.809,26.436,1.809c6.411,0,12.78-0.591,25.47-1.77c0.809-0.075,1.515-1.489,1.556-2.597
				c0.029-0.756,0.103-1.808,0.18-2.933l0.005-1.055h0.069c0.115-1.682,0.217-3.328,0.192-4.213c-0.041-1.55-0.57-3.454-1.383-4.972
				l-2.301-4.549l5.569-1.744c0.237-0.073,0.431-0.235,0.545-0.455c0.112-0.217,0.134-0.464,0.061-0.694
				c-0.145-0.45-0.706-0.741-1.167-0.597l-5.71,1.788l-0.016-0.028C49.688,56.27,41.43,56.27,37.424,56.27l-6.03,0.008
				c-7.245,0-14.805-0.109-20.779-1.396l-0.058,0.132l-5.07-1.588c-0.488-0.154-1.018,0.126-1.169,0.599
				c-0.076,0.237-0.055,0.471,0.063,0.693c0.118,0.224,0.3,0.376,0.543,0.452l4.741,1.486l-2.462,4.441
				c-0.844,1.698-1.273,3.651-1.313,4.737C5.856,66.718,5.874,68.282,5.931,69.842L5.931,69.842z M31.609,53.044
				c-7.389,0-14.483-0.096-20.071-1.259l-0.604-0.126l3.91-8.935l0.187-0.077c4.273-1.742,10.479-2.688,17.528-2.688
				c7.196,0,14.458,0.991,19.427,2.651l0.301,0.102l4.04,8.435L55.739,51.3c-6.656,1.736-14.531,1.736-18.315,1.736L31.609,53.044
				L31.609,53.044z M12.346,50.927c5.401,1.03,12.195,1.118,19.263,1.118l5.813-0.007c3.631,0,11.069,0,17.476-1.556l-3.331-6.955
				c-4.868-1.607-11.962-2.565-19.008-2.565c-6.849,0-12.863,0.899-16.961,2.537L12.346,50.927L12.346,50.927z"/>
		</g>
		<g id="g3426">
			<path id="path3428" fill="#00AEEE" d="M12.865,62.454c-2.818,0-5.111,2.27-5.111,5.058s2.293,5.056,5.111,5.056
				c2.819,0,5.113-2.268,5.113-5.056S15.684,62.454,12.865,62.454z M12.865,69.333c-1.015,0-1.841-0.817-1.841-1.821
				c0-1.005,0.826-1.822,1.841-1.822c1.017,0,1.843,0.817,1.843,1.822C14.707,68.515,13.881,69.333,12.865,69.333z"/>
			<path id="path3430" fill="#FFFFFF" d="M12.865,73.067c-3.095,0-5.611-2.491-5.611-5.556s2.518-5.558,5.611-5.558
				c3.096,0,5.613,2.492,5.613,5.558C18.478,70.575,15.96,73.067,12.865,73.067z M12.865,62.954c-2.543,0-4.611,2.044-4.611,4.558
				c0,2.512,2.068,4.556,4.611,4.556c2.545,0,4.613-2.043,4.613-4.556C17.478,64.998,15.41,62.954,12.865,62.954z M12.865,69.833
				c-1.291,0-2.341-1.042-2.341-2.321c0-1.28,1.05-2.322,2.341-2.322c1.292,0,2.343,1.042,2.343,2.322
				C15.207,68.791,14.157,69.833,12.865,69.833z M12.865,66.189c-0.738,0-1.341,0.594-1.341,1.322c0,0.729,0.603,1.321,1.341,1.321
				c0.74,0,1.343-0.593,1.343-1.321S13.605,66.189,12.865,66.189z"/>
		</g>
		<g id="g3432">
			<path id="path3434" fill="#00AEEE" d="M54.152,62.454c-2.818,0-5.111,2.27-5.111,5.058s2.293,5.056,5.111,5.056
				c2.819,0,5.114-2.268,5.114-5.056S56.972,62.454,54.152,62.454z M54.152,69.333c-1.016,0-1.841-0.817-1.841-1.821
				c0-1.005,0.825-1.822,1.841-1.822c1.018,0,1.844,0.817,1.844,1.822C55.995,68.515,55.169,69.333,54.152,69.333z"/>
			<path id="path3436" fill="#FFFFFF" d="M54.152,73.067c-3.095,0-5.611-2.491-5.611-5.556s2.518-5.558,5.611-5.558
				c3.097,0,5.614,2.492,5.614,5.558C59.766,70.575,57.248,73.067,54.152,73.067z M54.152,62.954c-2.543,0-4.611,2.044-4.611,4.558
				c0,2.512,2.068,4.556,4.611,4.556c2.544,0,4.614-2.043,4.614-4.556C58.766,64.998,56.697,62.954,54.152,62.954z M54.152,69.833
				c-1.291,0-2.341-1.042-2.341-2.321c0-1.28,1.05-2.322,2.341-2.322c1.292,0,2.344,1.042,2.344,2.322
				C56.495,68.791,55.444,69.833,54.152,69.833z M54.152,66.189c-0.738,0-1.341,0.594-1.341,1.322c0,0.729,0.603,1.321,1.341,1.321
				c0.74,0,1.344-0.593,1.344-1.321S54.892,66.189,54.152,66.189z"/>
		</g>
		<g id="g3438">
			<path id="path3440" fill="#00AEEE" d="M20.945,73.353h25.408v-3.234H20.945V73.353z"/>
			<path id="path3442" fill="#FFFFFF" d="M46.853,73.853H20.445v-4.234h26.408V73.853z M21.445,72.853h24.408v-2.234H21.445V72.853z
				"/>
		</g>
		<g id="g3444">
			<path id="path3446" fill="#00AEEE" d="M20.945,66.882h25.408v-3.234H20.945V66.882z"/>
			<path id="path3448" fill="#FFFFFF" d="M46.853,67.382H20.445v-4.234h26.408V67.382z M21.445,66.382h24.408v-2.234H21.445V66.382z
				"/>
		</g>
	</g>
	<g id="g3450" opacity="0.3216">
		<path id="path3452" fill="#00AEEE" d="M14.221,43.111l0.055-0.021c4.158-1.694,10.296-2.628,17.283-2.628
			c7.145,0,14.348,0.98,19.27,2.626l0.099,0.033l3.687,7.696c-6.571,1.714-14.304,1.721-18.189,1.721l-3.031,0.004
			c-8.536,0.016-16.623,0.03-22.752-1.245L14.221,43.111L14.221,43.111z"/>
		<path id="path3454" fill="#FFFFFF" d="M30.608,53.044c-7.389,0-14.483-0.096-20.071-1.259l-0.604-0.126l3.91-8.935l0.187-0.077
			c4.273-1.742,10.479-2.688,17.528-2.688c7.196,0,14.458,0.991,19.427,2.651l0.3,0.102l4.04,8.435L54.738,51.3
			c-6.656,1.736-14.531,1.736-18.315,1.736L30.608,53.044L30.608,53.044z M11.346,50.927c5.401,1.03,12.195,1.118,19.263,1.118
			l5.813-0.007c3.631,0,11.069,0,17.476-1.556l-3.331-6.955c-4.869-1.607-11.962-2.565-19.008-2.565
			c-6.849,0-12.863,0.899-16.961,2.537L11.346,50.927L11.346,50.927z"/>
	</g>
</g>
</svg>
