<?xml version="1.0" encoding="utf-8"?>
<!-- Generator: Adobe Illustrator 17.0.0, SVG Export Plug-In . SVG Version: 6.00 Build 0)  -->
<!DOCTYPE svg PUBLIC "-//W3C//DTD SVG 1.1//EN" "http://www.w3.org/Graphics/SVG/1.1/DTD/svg11.dtd">
<svg version="1.1" id="Layer_1" xmlns="http://www.w3.org/2000/svg" xmlns:xlink="http://www.w3.org/1999/xlink" x="0px" y="0px"
	 width="76.253px" height="90.866px" viewBox="0 0 76.253 90.866" enable-background="new 0 0 76.253 90.866" xml:space="preserve">
<g id="g3266">
	<g id="g3268">
		<g id="g3270">
			<g id="g3272">
				<rect id="rect3274" x="57.275" y="23.107" fill="#FAB149" width="2" height="51.762"/>
			</g>
			<g id="g3276">
				<rect id="rect3278" x="46.045" y="23.107" fill="#FAB149" width="2" height="51.762"/>
			</g>
			<g id="g3280">
				<polygon id="polygon3282" fill="#FAB149" points="47.667,73.867 55.527,73.858 45.58,64.563 56.594,54.271 45.58,43.98 
					56.594,33.687 46.362,24.127 47.728,22.666 59.524,33.687 48.51,43.98 59.524,54.271 48.51,64.563 60.59,75.852 47.669,75.867 
									"/>
			</g>
			<g id="g3284">
				
					<rect id="rect3286" x="61.758" y="20.114" transform="matrix(0.9676 0.2526 -0.2526 0.9676 7.5704 -16.7434)" fill="#FAB149" width="14.476" height="1.999"/>
			</g>
			<g id="g3288">
				
					<rect id="rect3290" x="0.318" y="7.602" transform="matrix(0.9676 0.2526 -0.2526 0.9676 2.8555 -5.0398)" fill="#FAB149" width="41.477" height="2"/>
			</g>
			<g id="g3292">
				<rect id="rect3294" x="11.567" y="6.383" fill="#FAB149" width="2" height="15.059"/>
			</g>
			<g id="g3296">
				<path id="path3298" fill="#FAB149" d="M57.572,24.107H45.964c-2.368,0-4.295-1.921-4.295-4.281v-6.861
					c0-2.361,1.927-4.281,4.295-4.281h11.608c2.368,0,4.295,1.92,4.295,4.281v6.861C61.867,22.186,59.941,24.107,57.572,24.107z
					 M45.964,10.682c-1.266,0-2.295,1.023-2.295,2.281v6.861c0,1.258,1.029,2.281,2.295,2.281h11.608
					c1.266,0,2.295-1.023,2.295-2.281v-6.861c0-1.258-1.029-2.281-2.295-2.281H45.964z"/>
			</g>
			<g id="g3300">
				<polygon id="polygon3302" fill="#FAB149" points="12.259,22.347 4.278,34.928 2.589,33.857 12.259,18.615 21.928,33.857 
					20.24,34.928 				"/>
			</g>
			<g id="g3304">
				<path id="path3306" fill="#FFFFFF" d="M24.136,36.159H1v11.849h23.136V36.159L24.136,36.159z"/>
				<path id="path3308" fill="#FAB149" d="M25.136,49.008H0V35.159h25.136V49.008z M2,47.008h21.136v-9.849H2V47.008z"/>
			</g>
			<g id="g3310">
				<polygon id="polygon3312" fill="#FAB149" points="52.505,3.735 49.391,8.643 47.703,7.572 52.505,0 57.307,7.572 55.619,8.643 
									"/>
			</g>
		</g>
		<g id="g3314">
			<rect id="rect3316" x="44" y="54.867" fill="#FFFFFF" width="14" height="34"/>
		</g>
		<g id="g3318">
			<path id="path3320" fill="#FFFFFF" d="M27,53.867l9-8l8,8l3,4l-1,28l-4-1H30L27,53.867z"/>
		</g>
		<g id="g3322">
			<g id="g3324">
				<path id="path3326" fill="#FFFFFF" d="M58.818,53.892v35.977l0,0 M12.183,89.867V53.892l0,0 M18.399,36.867h34.203L63,53.565
					H44.329L35.5,45.174l-8.828,8.391H8L18.399,36.867L18.399,36.867z M29.442,89.867V76.706c0-3.183,2.727-5.786,6.059-5.786l0,0
					c3.332,0,6.059,2.604,6.059,5.786v13.161l0,0 M18.277,60.535h4.987v7.071h-4.987V60.535L18.277,60.535z M18.277,74.308h4.987
					v8.907h-4.987V74.308L18.277,74.308z M47.736,74.308h4.987v8.907h-4.987V74.308L47.736,74.308z M47.736,60.535h4.987v7.071
					h-4.987V60.535L47.736,60.535z"/>
				<path id="path3328" fill="#00AEEE" d="M59.818,89.867h-2V54.565H43.929l-8.43-8.011l-8.429,8.011H13.181v35.302h-2V54.565H6.198
					l11.644-18.698h35.313l11.644,18.698h-4.982L59.818,89.867L59.818,89.867z M44.729,52.567H61.2l-9.153-14.698H18.954
					L9.801,52.567h16.472l9.228-8.77L44.729,52.567z M42.559,89.867h-2V76.706c0-2.64-2.269-4.786-5.059-4.786
					s-5.059,2.146-5.059,4.786v13.161h-2V76.706c0-3.742,3.167-6.786,7.059-6.786s7.059,3.044,7.059,6.786V89.867z M53.724,84.215
					h-6.987V73.308h6.987V84.215z M48.736,82.215h2.987v-6.907h-2.987V82.215z M24.264,84.215h-6.987V73.308h6.987V84.215z
					 M19.277,82.215h2.987v-6.907h-2.987V82.215z M53.724,68.608h-6.987v-9.071h6.987V68.608z M48.736,66.608h2.987v-5.071h-2.987
					V66.608z M24.264,68.608h-6.987v-9.071h6.987V68.608z M19.277,66.608h2.987v-5.071h-2.987V66.608z"/>
			</g>
			<g id="g3330">
				<path id="path3332" fill="#00AEEE" d="M35.5,63.253c-2.682,0-4.864-2.188-4.864-4.875c0-2.688,2.182-4.875,4.864-4.875
					c2.683,0,4.865,2.187,4.865,4.875S38.183,63.253,35.5,63.253z M35.5,55.503c-1.58,0-2.864,1.29-2.864,2.875
					s1.285,2.875,2.864,2.875c1.58,0,2.865-1.29,2.865-2.875S37.08,55.503,35.5,55.503z"/>
			</g>
			<g id="g3334">
				<rect id="rect3336" x="9" y="88.866" fill="#00AEEE" width="53" height="2"/>
			</g>
		</g>
		<g id="g3338">
			<path id="path3340" fill="#FFFFFF" d="M13,54.867h10v4H13V54.867z"/>
		</g>
		<g id="g3342">
			<path id="path3344" fill="#FFFFFF" d="M13,67.867v-10h4v10H13z"/>
		</g>
	</g>
	<g id="g3346">
		<path id="path3348" fill="#CAE4A9" d="M9.5,51.867l9-14h31l9,14h-14l-9-7l-9,7H9.5z"/>
	</g>
</g>
</svg>
