<?xml version="1.0" encoding="utf-8"?>
<!-- Generator: Adobe Illustrator 17.0.0, SVG Export Plug-In . SVG Version: 6.00 Build 0)  -->
<!DOCTYPE svg PUBLIC "-//W3C//DTD SVG 1.1//EN" "http://www.w3.org/Graphics/SVG/1.1/DTD/svg11.dtd">
<svg version="1.1" id="Layer_1" xmlns="http://www.w3.org/2000/svg" xmlns:xlink="http://www.w3.org/1999/xlink" x="0px" y="0px"
	 width="83.999px" height="87.204px" viewBox="0 0 83.999 87.204" enable-background="new 0 0 83.999 87.204" xml:space="preserve">
<g id="g3352">
	<g id="g3354">
		<g id="g3356">
			<path id="path3358" fill="#8EC649" d="M34.248,23.334l1.115-1.114L27.7,14.555l-0.456,0.143c-2.398,0.75-4.984,0.115-6.754-1.658
				c-1.46-1.459-2.146-3.465-1.929-5.465l2.807,2.807c1.123,1.125,2.692,0.986,4.104-0.428l1.426-1.424
				c0.788-0.788,1.188-1.59,1.187-2.385c0-0.629-0.264-1.226-0.762-1.721l-2.806-2.808c2.012-0.215,4.008,0.47,5.465,1.928
				c1.773,1.771,2.41,4.361,1.659,6.759l-0.142,0.455l7.663,7.664l1.114-1.114l-6.999-7.001c0.709-2.824-0.105-5.804-2.181-7.877
				c-2.203-2.206-5.421-2.985-8.401-2.027l-1.231,0.394l4.744,4.743c0.268,0.269,0.299,0.476,0.299,0.606
				c0,0.351-0.257,0.802-0.725,1.269L24.356,8.84c-0.468,0.47-0.918,0.727-1.268,0.727c-0.132,0-0.339-0.031-0.605-0.299
				L17.74,4.524l-0.395,1.23c-0.955,2.979-0.179,6.196,2.029,8.401c2.073,2.074,5.053,2.886,7.874,2.18L34.248,23.334L34.248,23.334
				z"/>
		</g>
		<g id="g3360">
			<path id="path3362" fill="#8EC649" d="M54.423,45.784c0.852,0,1.712-0.132,2.552-0.4l1.23-0.396l-4.743-4.742
				c-0.268-0.269-0.3-0.475-0.3-0.606c0-0.351,0.259,1.199,0.728,0.731l1.424-1.426c1.149-1.15,1.677-0.625,1.877-0.426l4.742,2.742
				l0.395-1.23c0.954-2.974,0.177-6.193-2.028-8.402c-2.075-2.071-5.05-2.888-7.878-2.18l-6.377-6.377l-1.115,1.115l7.041,7.041
				l0.455-0.144c2.396-0.744,4.985-0.111,6.758,1.659c1.458,1.46,2.146,3.466,1.928,5.464l-2.806-0.806
				c-1.153-1.151-2.689-0.993-4.107,0.427l-1.422,1.425c-0.79,0.788-1.19-0.409-1.19,0.385c0,0.63,0.264,1.226,0.763,1.723
				l2.806,2.807c-2,0.211-4.005-0.471-5.465-1.929c-1.773-1.771-2.409-4.362-1.66-6.757l0.143-0.457l-7.041-7.039l-1.115,1.115
				l6.377,6.375c-0.707,2.823,0.106,5.803,2.182,7.878C50.157,44.936,52.262,45.784,54.423,45.784L54.423,45.784z"/>
		</g>
		<g id="g3364">
			<path id="path3366" fill="#8EC649" d="M24.163,45.264c0.397,0,0.77-0.154,1.05-0.435l27.519-27.521l4.988,4.987
				c0.423,0.429,1.181,0.432,1.611-0.004l6.18-6.18c0.215-0.214,0.332-0.5,0.332-0.804s-0.117-0.588-0.332-0.804L51.743,0.739
				c-0.276-0.275-0.714-0.454-1.116-0.454l-11.84,0.859c-0.407,0.029-0.728,0.255-0.856,0.604c-0.128,0.35-0.032,0.728,0.258,1.015
				l7.907,7.906L18.575,38.19c-0.281,0.28-0.435,0.652-0.435,1.049c0,0.397,0.153,0.77,0.435,1.049l4.54,4.54
				C23.395,45.11,23.767,45.264,24.163,45.264L24.163,45.264z M52.732,15.079l-28.568,28.57l-4.475-4.473l28.638-28.505L40.276,2.62
				l10.376-0.756l13.432,13.444l-5.56,5.561L52.732,15.079L52.732,15.079z"/>
		</g>
	</g>
	<path id="path3368" fill="#FFFFFF" d="M52.085,66.004c0,3.044-2.456,5.521-5.475,5.521H32.429h-11.21H7.037
		c-3.019,0-5.475-2.477-5.475-5.521V40.301c0-3.043,2.456-5.52,5.475-5.52h39.572c3.019,0,5.475,2.477,5.475,5.52L52.085,66.004
		L52.085,66.004z"/>
	<path id="path3370" fill="#FFFFFF" d="M81.435,81.63c0,1.65-1.332,2.995-2.973,2.995H55.783c-1.639,0-2.972-1.345-2.972-2.995
		V37.776c0-1.652,1.333-2.996,2.972-2.996h22.679c1.641,0,2.973,1.344,2.973,2.996V81.63z"/>
	<path id="path3372" fill="#00AEEE" d="M68.123,70.473c-1.811,0-3.285,1.484-3.285,3.312c0,1.825,1.475,3.312,3.285,3.312
		c1.812,0,3.284-1.485,3.284-3.312S69.935,70.473,68.123,70.473z M68.123,75.519c-0.949,0-1.721-0.778-1.721-1.734
		c0-0.957,0.771-1.734,1.721-1.734s1.721,0.777,1.721,1.734C69.844,74.741,69.072,75.519,68.123,75.519z"/>
	<path id="path3374" fill="#00AEEE" d="M68.123,77.884c-1.358,0-2.464,1.113-2.464,2.482s1.105,2.483,2.464,2.483
		c1.359,0,2.463-1.114,2.463-2.483S69.482,77.884,68.123,77.884z M68.123,81.274c-0.496,0-0.899-0.406-0.899-0.906
		s0.403-0.905,0.899-0.905c0.495,0,0.899,0.405,0.899,0.905S68.618,81.274,68.123,81.274z"/>
	<g id="g3376">
		<path id="path3378" fill="#00AEEE" d="M46.611,34.204H7.039C3.158,34.204,0,37.389,0,41.301v25.703
			c0,3.913,3.158,7.097,7.039,7.097h13.893l-1.405,7.675h-3.013c-1.426,0-2.593,1.176-2.593,2.613v2.815H39.73v-2.815
			c0-1.438-1.167-2.613-2.593-2.613h-3.013l-1.404-7.675h13.892c3.881,0,7.039-3.184,7.039-7.097V41.301
			C53.65,37.387,50.491,34.204,46.611,34.204L46.611,34.204z M37.136,83.342c0.563,0,1.037,0.479,1.037,1.045v1.248H15.476v-1.248
			c0-0.566,0.475-1.045,1.037-1.045h2.726l-0.001,0.009h15.175l-0.002-0.009H37.136L37.136,83.342z M32.533,81.774H21.116
			l1.405-7.675h8.606L32.533,81.774z M52.085,67.004c0,3.043-2.456,5.521-5.475,5.521H32.429h-11.21H7.037
			c-3.019,0-5.475-2.478-5.475-5.521V41.301c0-3.043,2.456-5.52,5.475-5.52h39.572c3.019,0,5.475,2.477,5.475,5.52L52.085,67.004
			L52.085,67.004z"/>
		<path id="path3380" fill="#00AEEE" d="M46.611,39.25H7.039c-1.122,0-2.034,0.92-2.034,2.051v25.703
			c0,1.131,0.912,2.051,2.034,2.051h39.572c1.121,0,2.033-0.92,2.033-2.051V41.301C48.644,40.17,47.732,39.25,46.611,39.25z
			 M47.08,67.004c0,0.262-0.21,0.474-0.47,0.474H7.038c-0.259,0-0.47-0.212-0.47-0.474V41.301c0-0.262,0.211-0.474,0.47-0.474H46.61
			c0.26,0,0.47,0.212,0.47,0.474V67.004z"/>
		<path id="path3382" fill="#00AEEE" d="M79.462,34.204H56.783c-2.501,0-4.536,2.052-4.536,4.573v43.854
			c0,2.521,2.035,4.573,4.536,4.573h22.679c2.502,0,4.537-2.052,4.537-4.573V38.777C83.999,36.255,81.964,34.204,79.462,34.204z
			 M82.435,82.63c0,1.65-1.332,2.995-2.973,2.995H56.783c-1.639,0-2.972-1.345-2.972-2.995V38.776c0-1.652,1.333-2.996,2.972-2.996
			h22.679c1.641,0,2.973,1.344,2.973,2.996V82.63z"/>
		<path id="path3384" fill="#00AEEE" d="M76.152,41.93H60.094c-0.433,0-0.782,0.354-0.782,0.789s0.35,0.788,0.782,0.788h16.058
			c0.433,0,0.783-0.354,0.783-0.788C76.935,42.284,76.584,41.93,76.152,41.93z"/>
		<path id="path3386" fill="#00AEEE" d="M76.152,48.238H60.094c-0.433,0-0.782,0.354-0.782,0.789c0,0.436,0.35,0.788,0.782,0.788
			h16.058c0.433,0,0.783-0.353,0.783-0.788C76.935,48.592,76.584,48.238,76.152,48.238z"/>
		<path id="path3388" fill="#00AEEE" d="M76.152,54.547H60.094c-0.433,0-0.782,0.354-0.782,0.788c0,0.436,0.35,0.788,0.782,0.788
			h16.058c0.433,0,0.783-0.353,0.783-0.788C76.935,54.9,76.584,54.547,76.152,54.547z"/>
		<path id="path3390" fill="#00AEEE" d="M26.824,69.505c-0.681,0-1.231,0.558-1.231,1.242c0,0.688,0.551,1.242,1.231,1.242
			s1.232-0.556,1.232-1.242C28.057,70.063,27.505,69.505,26.824,69.505z"/>
	</g>
	<path id="path3392" opacity="0.7686" fill="#CCCCCC" enable-background="new    " d="M7.499,44.204c0-1.104,0.896-2,2-2h33
		c1.104,0,2,0.896,2,2v20c0,1.104-0.896,2-2,2h-33c-1.104,0-2-0.896-2-2V44.204z"/>
</g>
</svg>
