<?xml version="1.0" encoding="utf-8"?>
<!-- Generator: Adobe Illustrator 17.0.0, SVG Export Plug-In . SVG Version: 6.00 Build 0)  -->
<!DOCTYPE svg PUBLIC "-//W3C//DTD SVG 1.1//EN" "http://www.w3.org/Graphics/SVG/1.1/DTD/svg11.dtd">
<svg version="1.1" id="Layer_1" xmlns="http://www.w3.org/2000/svg" xmlns:xlink="http://www.w3.org/1999/xlink" x="0px" y="0px"
	 width="20.002px" height="25px" viewBox="0 0 20.002 25" enable-background="new 0 0 20.002 25" xml:space="preserve">
<g id="g3456">
	<g id="g3463">
		<g id="g3465">
			<path id="path3467" fill="#FFFFFF" d="M14.082,9.501l-0.007,0.082l0.001,0.257c0,0.28-0.017,0.563-0.05,0.837
				c-0.311,2.573-2.041,4.513-4.024,4.513c-2.245,0-4.073-2.399-4.073-5.351L5.93,9.61L5.922,9.501L14.082,9.501L14.082,9.501z"/>
		</g>
		<g id="g3469">
			<path id="path3471" fill="#FFFFFF" d="M18.674,22.654l-0.002,0.041l0.002,0.029v0.016v0.904
				c-0.039,0.024-0.117,0.055-0.228,0.055H1.554c-0.108,0-0.188-0.03-0.227-0.055v-0.912V22.68v-0.02
				c0.015-2.518,2.516-4.695,6.091-5.304c0.318-0.054,0.552-0.324,0.552-0.642v-1.215h4.061l-0.001,1.215
				c0,0.317,0.232,0.588,0.552,0.642C16.156,17.965,18.656,20.14,18.674,22.654L18.674,22.654z"/>
		</g>
		<g id="g3473">
			<path id="path3475" fill="#6E6E6E" d="M10.002,16.493c-2.979,0-5.401-2.984-5.401-6.653c0-0.082,0-0.165,0.001-0.247
				c0.005-0.356,0.302-0.642,0.664-0.642c0.003,0,0.006,0,0.009,0c0.367,0.005,0.66,0.3,0.655,0.659
				C5.929,9.686,5.929,9.763,5.929,9.839c0,2.95,1.828,5.351,4.073,5.351c1.983,0,3.715-1.939,4.024-4.513
				c0.033-0.275,0.05-0.557,0.05-0.837l-0.001-0.257c-0.002-0.359,0.294-0.652,0.661-0.654c0.001,0,0.002,0,0.003,0
				c0.365,0,0.662,0.29,0.664,0.648l0.001,0.263c0,0.331-0.02,0.664-0.059,0.99C14.949,14.112,12.702,16.493,10.002,16.493
				L10.002,16.493z"/>
		</g>
		<g id="g3477">
			<g id="g3479">
				<path id="path3481" fill="#FAB149" d="M10.002,10.422c-1.856,0-7.916-0.153-7.916-2.121c0-0.774,0.854-1.187,1.671-1.434
					c0.269-2.8,1.757-5.242,3.876-6.308c0.205-0.104,0.451-0.094,0.648,0.024s0.317,0.329,0.317,0.555v3.361
					c0,0.411,0.255,0.697,0.482,0.697h1.833c0.229,0,0.482-0.287,0.482-0.697V1.134c0-0.227,0.12-0.437,0.316-0.555
					c0.197-0.119,0.442-0.128,0.648-0.025c2.125,1.063,3.616,3.508,3.885,6.312c0.816,0.246,1.67,0.659,1.67,1.434
					C17.918,10.269,11.859,10.422,10.002,10.422L10.002,10.422z M3.632,8.303c0.755,0.346,2.938,0.816,6.369,0.816
					c3.433,0,5.615-0.472,6.37-0.816c-0.177-0.083-0.463-0.19-0.917-0.302c-0.283-0.071-0.486-0.315-0.5-0.603
					c-0.094-2.062-0.938-3.92-2.229-5.034v2.137c0,1.102-0.813,1.999-1.812,1.999H9.08c-0.999,0-1.812-0.897-1.812-1.999V2.372
					C5.982,3.487,5.141,5.343,5.046,7.399c-0.014,0.287-0.217,0.531-0.5,0.603C4.095,8.113,3.809,8.22,3.632,8.303L3.632,8.303z"/>
			</g>
		</g>
		<g id="g3483">
			<g id="g3485">
				<path id="path3487" fill="#FAB149" d="M12.574,2.119c-0.133,0-0.268-0.039-0.385-0.121c-0.651-0.455-1.408-0.695-2.188-0.695
					c-0.779,0-1.535,0.241-2.188,0.695C7.514,2.207,7.1,2.138,6.887,1.845S6.742,1.146,7.041,0.937C7.919,0.325,8.942,0,9.999,0
					c1.058,0,2.08,0.323,2.958,0.936c0.3,0.209,0.369,0.615,0.156,0.908C12.986,2.024,12.782,2.119,12.574,2.119L12.574,2.119z"/>
			</g>
		</g>
		<g id="g3489">
			<path id="path3491" fill="#6E6E6E" d="M1.33,22.733l0.001-0.038L1.33,22.661c0.015-2.518,2.516-4.695,6.092-5.304
				c0.317-0.054,0.551-0.324,0.551-0.642v-1.457c0-0.359-0.297-0.651-0.664-0.651c-0.366,0-0.664,0.292-0.664,0.651v0.922
				c-3.938,0.854-6.643,3.469-6.643,6.5v0.007v-0.018c0-0.359,0.299-0.646,0.665-0.646S1.33,22.32,1.33,22.68V22.733z
				 M12.583,17.358c3.573,0.607,6.073,2.783,6.092,5.296c0.021-0.34,0.311-0.616,0.663-0.616c0.359,0,0.651,0.272,0.664,0.623v0.021
				c0-3.031-2.702-5.646-6.642-6.5V15.26c0-0.359-0.298-0.651-0.664-0.651c-0.367,0-0.665,0.292-0.665,0.651v1.457
				C12.031,17.033,12.264,17.304,12.583,17.358z M20.002,22.687V22.68v-0.021c-0.013-0.351-0.305-0.623-0.664-0.623
				c-0.354,0-0.643,0.276-0.663,0.616l-0.002,0.041l0.002,0.029v0.015v0.905c-0.039,0.024-0.117,0.055-0.228,0.055H1.555
				c-0.108,0-0.188-0.03-0.227-0.055V22.73v-0.052c0-0.359-0.297-0.657-0.663-0.657S0,22.307,0,22.667v0.018v0.009v1.013
				C0,24.432,0.684,25,1.555,25h16.892h0.006c0.869-0.002,1.549-0.57,1.549-1.293v-1.013L20.002,22.687L20.002,22.687z"/>
		</g>
	</g>
</g>
</svg>
